<svg xmlns="http://www.w3.org/2000/svg" width="24" height="24" viewBox="0 0 6.35 6.35"><path style="stroke:none;stroke-width:1.99999988;stroke-linecap:round;stroke-linejoin:round;stroke-miterlimit:4;stroke-dasharray:none;stroke-opacity:1;paint-order:markers fill stroke" d="M6 8c-1.108 0-2 .892-2 2v8c0 1.108.892 2 2 2h12c1.108 0 2-.892 2-2v-8c0-1.108-.892-2-2-2Zm0 2h12v8H6Z" transform="scale(.26458)"/><path style="stroke:none;stroke-width:.52916664;stroke-linecap:round;stroke-linejoin:round;stroke-miterlimit:4;stroke-dasharray:none;stroke-opacity:1;paint-order:markers fill stroke" d="M3.175 291.708a1.058 1.058 0 0 0-1.058 1.059h.529a.53.53 0 0 1 .529-.53.53.53 0 0 1 .53.53h.528a1.058 1.058 0 0 0-1.058-1.059Z" transform="translate(0 -290.65)"/></svg>